<svg width="22" height="22" viewBox="0 0 22 22" fill="none" xmlns="http://www.w3.org/2000/svg">
<g clip-path="url(#clip0_934_3933)">
<path d="M20.6252 14.208C20.2605 14.208 19.9108 14.3529 19.6529 14.6107C19.395 14.8686 19.2502 15.2183 19.2502 15.583V16.958C19.2502 17.5658 19.0087 18.1487 18.5789 18.5784C18.1492 19.0082 17.5663 19.2497 16.9585 19.2497H15.5835C15.2188 19.2497 14.8691 19.3945 14.6112 19.6524C14.3534 19.9102 14.2085 20.26 14.2085 20.6247C14.2085 20.9893 14.3534 21.3391 14.6112 21.5969C14.8691 21.8548 15.2188 21.9996 15.5835 21.9996H16.9585C18.2952 21.9982 19.5767 21.4666 20.5219 20.5214C21.4671 19.5762 21.9987 18.2947 22.0002 16.958V15.583C22.0002 15.2183 21.8553 14.8686 21.5974 14.6107C21.3396 14.3529 20.9898 14.208 20.6252 14.208Z" fill="#F7FAFF"/>
<path d="M1.375 7.79167C1.73967 7.79167 2.08941 7.6468 2.34727 7.38894C2.60513 7.13108 2.75 6.78134 2.75 6.41667V5.04167C2.75 4.43388 2.99144 3.85098 3.42121 3.42121C3.85098 2.99144 4.43388 2.75 5.04167 2.75H6.41667C6.78134 2.75 7.13108 2.60513 7.38894 2.34727C7.6468 2.08941 7.79167 1.73967 7.79167 1.375C7.79167 1.01033 7.6468 0.660591 7.38894 0.402728C7.13108 0.144866 6.78134 0 6.41667 0L5.04167 0C3.70498 0.00145582 2.42346 0.533097 1.47828 1.47828C0.533097 2.42346 0.00145582 3.70498 0 5.04167L0 6.41667C0 6.78134 0.144866 7.13108 0.402728 7.38894C0.660591 7.6468 1.01033 7.79167 1.375 7.79167Z" fill="#F7FAFF"/>
<path d="M6.41667 19.2497H5.04167C4.43388 19.2497 3.85098 19.0082 3.42121 18.5784C2.99144 18.1487 2.75 17.5658 2.75 16.958V15.583C2.75 15.2183 2.60513 14.8686 2.34727 14.6107C2.08941 14.3529 1.73967 14.208 1.375 14.208C1.01033 14.208 0.660591 14.3529 0.402728 14.6107C0.144866 14.8686 0 15.2183 0 15.583L0 16.958C0.00145582 18.2947 0.533097 19.5762 1.47828 20.5214C2.42346 21.4666 3.70498 21.9982 5.04167 21.9996H6.41667C6.78134 21.9996 7.13108 21.8548 7.38894 21.5969C7.6468 21.3391 7.79167 20.9893 7.79167 20.6247C7.79167 20.26 7.6468 19.9102 7.38894 19.6524C7.13108 19.3945 6.78134 19.2497 6.41667 19.2497Z" fill="#F7FAFF"/>
<path d="M16.9585 0H15.5835C15.2188 0 14.8691 0.144866 14.6112 0.402728C14.3534 0.660591 14.2085 1.01033 14.2085 1.375C14.2085 1.73967 14.3534 2.08941 14.6112 2.34727C14.8691 2.60513 15.2188 2.75 15.5835 2.75H16.9585C17.5663 2.75 18.1492 2.99144 18.5789 3.42121C19.0087 3.85098 19.2502 4.43388 19.2502 5.04167V6.41667C19.2502 6.78134 19.395 7.13108 19.6529 7.38894C19.9108 7.6468 20.2605 7.79167 20.6252 7.79167C20.9898 7.79167 21.3396 7.6468 21.5974 7.38894C21.8553 7.13108 22.0002 6.78134 22.0002 6.41667V5.04167C21.9987 3.70498 21.4671 2.42346 20.5219 1.47828C19.5767 0.533097 18.2952 0.00145582 16.9585 0V0Z" fill="#F7FAFF"/>
<path d="M10.9998 10.0837C12.7718 10.0837 14.2082 8.64724 14.2082 6.87533C14.2082 5.10341 12.7718 3.66699 10.9998 3.66699C9.22792 3.66699 7.7915 5.10341 7.7915 6.87533C7.7915 8.64724 9.22792 10.0837 10.9998 10.0837Z" fill="#F7FAFF"/>
<path d="M5.60062 16.3603C5.57938 16.4913 5.587 16.6252 5.62295 16.7529C5.65891 16.8806 5.72232 16.9988 5.80877 17.0994C5.89521 17.2 6.00259 17.2805 6.12339 17.3352C6.24419 17.39 6.3755 17.4177 6.50812 17.4163H15.4914C15.6242 17.4179 15.7557 17.3904 15.8768 17.3358C15.9978 17.2812 16.1054 17.2007 16.192 17.1001C16.2787 16.9995 16.3423 16.8811 16.3783 16.7533C16.4144 16.6256 16.422 16.4914 16.4008 16.3603C16.1574 15.107 15.4856 13.9773 14.5005 13.1651C13.5154 12.3529 12.2784 11.9087 11.0016 11.9087C9.72484 11.9087 8.48785 12.3529 7.50275 13.1651C6.51764 13.9773 5.84581 15.107 5.60245 16.3603H5.60062Z" fill="#F7FAFF"/>
</g>
<defs>
<clipPath id="clip0_934_3933">
<rect width="22" height="22" fill="white"/>
</clipPath>
</defs>
</svg>
