<svg width="40" height="40" viewBox="0 0 40 40" fill="none" xmlns="http://www.w3.org/2000/svg">
<rect width="40" height="40" rx="20" fill="#BD3638"/>
<g clip-path="url(#clip0_40_451)">
<path d="M20 9C17.8244 9 15.6977 9.64514 13.8887 10.8538C12.0798 12.0625 10.6699 13.7805 9.83733 15.7905C9.00477 17.8005 8.78693 20.0122 9.21137 22.146C9.6358 24.2798 10.6835 26.2398 12.2218 27.7782C13.7602 29.3166 15.7202 30.3642 17.854 30.7886C19.9878 31.2131 22.1995 30.9952 24.2095 30.1627C26.2195 29.3301 27.9375 27.9202 29.1462 26.1113C30.3549 24.3023 31 22.1756 31 20C30.9969 17.0836 29.8369 14.2875 27.7747 12.2253C25.7125 10.1631 22.9164 9.00315 20 9V9ZM20 28.25C18.3683 28.25 16.7733 27.7661 15.4166 26.8596C14.0598 25.9531 13.0024 24.6646 12.378 23.1571C11.7536 21.6496 11.5902 19.9908 11.9085 18.3905C12.2269 16.7902 13.0126 15.3202 14.1664 14.1664C15.3202 13.0126 16.7902 12.2268 18.3905 11.9085C19.9909 11.5902 21.6497 11.7536 23.1571 12.378C24.6646 13.0024 25.9531 14.0598 26.8596 15.4165C27.7662 16.7733 28.25 18.3683 28.25 20C28.2476 22.1873 27.3776 24.2843 25.831 25.831C24.2843 27.3776 22.1873 28.2476 20 28.25ZM21.375 18.7992C21.6084 19.0638 21.7604 19.3901 21.8129 19.739C21.8654 20.0879 21.8161 20.4445 21.671 20.7661C21.5258 21.0877 21.2909 21.3605 20.9945 21.5519C20.6982 21.7433 20.3528 21.8451 20 21.8451C19.6472 21.8451 19.3019 21.7433 19.0055 21.5519C18.7091 21.3605 18.4742 21.0877 18.329 20.7661C18.1839 20.4445 18.1346 20.0879 18.1871 19.739C18.2396 19.3901 18.3916 19.0638 18.625 18.7992V14.9583C18.625 14.5937 18.7699 14.2439 19.0277 13.9861C19.2856 13.7282 19.6353 13.5833 20 13.5833C20.3647 13.5833 20.7144 13.7282 20.9723 13.9861C21.2301 14.2439 21.375 14.5937 21.375 14.9583V18.7992Z" fill="#F7FAFF"/>
</g>
<defs>
<clipPath id="clip0_40_451">
<rect width="22" height="22" fill="white" transform="translate(9 9)"/>
</clipPath>
</defs>
</svg>
