<svg width="40" height="40" viewBox="0 0 40 40" fill="none" xmlns="http://www.w3.org/2000/svg">
<rect width="40" height="40" rx="20" fill="#36BD4C"/>
<g clip-path="url(#clip0_40_399)">
<path d="M18.0346 28.0142C16.5319 27.6456 15.1632 26.8619 14.0847 25.7525C13.0062 24.6432 12.2614 23.2529 11.9353 21.7405C11.6092 20.228 11.715 18.6544 12.2405 17.1992C12.7661 15.744 13.6903 14.4659 14.9076 13.5109C16.1249 12.5559 17.5862 11.9624 19.1247 11.7982C20.6631 11.6341 22.2168 11.9059 23.6081 12.5826C24.9995 13.2592 26.1726 14.3135 26.9934 15.6251C27.8141 16.9366 28.2496 18.4525 28.2499 19.9998C28.2499 20.3644 28.3948 20.7142 28.6527 20.972C28.9105 21.2299 29.2603 21.3748 29.6249 21.3748C29.9896 21.3748 30.3394 21.2299 30.5972 20.972C30.8551 20.7142 30.9999 20.3644 30.9999 19.9998C30.9996 17.9367 30.4191 15.9153 29.3248 14.1664C28.2304 12.4175 26.6662 11.0116 24.8109 10.1093C22.9556 9.20696 20.884 8.84459 18.8325 9.06354C16.7811 9.28249 14.8326 10.0739 13.2095 11.3475C11.5864 12.6211 10.3543 14.3254 9.65364 16.2659C8.95304 18.2064 8.81226 20.3048 9.24738 22.3214C9.68251 24.3381 10.676 26.1918 12.1144 27.6707C13.5528 29.1497 15.3781 30.1943 17.3819 30.6853C17.4887 30.7118 17.5983 30.725 17.7083 30.7248C18.0443 30.7244 18.3686 30.601 18.6199 30.3779C18.8711 30.1547 19.032 29.8473 19.072 29.5136C19.1121 29.18 19.0286 28.8432 18.8373 28.567C18.646 28.2907 18.3601 28.0941 18.0337 28.0142H18.0346Z" fill="#F7FAFF"/>
<path d="M30.6526 23.6114C30.3948 23.3536 30.0451 23.2088 29.6805 23.2088C29.3159 23.2088 28.9662 23.3536 28.7084 23.6114L24.3221 27.9949L22.3669 25.9232C22.2418 25.793 22.0923 25.6886 21.9269 25.6161C21.7615 25.5437 21.5835 25.5045 21.4029 25.5008C21.2224 25.4972 21.0429 25.5291 20.8747 25.5948C20.7065 25.6605 20.5529 25.7587 20.4226 25.8838C20.2924 26.0089 20.1882 26.1585 20.1158 26.3239C20.0434 26.4893 20.0043 26.6674 20.0007 26.848C19.9971 27.0285 20.0291 27.208 20.0949 27.3761C20.1607 27.5443 20.259 27.6979 20.3841 27.8281L22.7501 30.3223C22.9478 30.5318 23.1854 30.6997 23.4489 30.8161C23.7124 30.9326 23.9965 30.9953 24.2846 31.0006H24.3185C24.8892 30.9987 25.4362 30.7722 25.8411 30.37L30.6572 25.5556C30.9144 25.2972 31.0584 24.9472 31.0575 24.5826C31.0567 24.218 30.911 23.8686 30.6526 23.6114Z" fill="#F7FAFF"/>
<path d="M18.625 15.875V19.1337L16.425 20.5087C16.2719 20.6046 16.1391 20.7297 16.0344 20.8768C15.9297 21.024 15.8549 21.1903 15.8145 21.3664C15.7741 21.5424 15.7687 21.7247 15.7987 21.9028C15.8288 22.0809 15.8936 22.2514 15.9895 22.4044C16.0854 22.5575 16.2105 22.6902 16.3576 22.795C16.5048 22.8997 16.6711 22.9744 16.8472 23.0149C17.0232 23.0553 17.2055 23.0606 17.3836 23.0306C17.5617 23.0006 17.7322 22.9357 17.8852 22.8398L20.5151 21.1898C20.779 21.0245 20.9964 20.7946 21.1468 20.522C21.2973 20.2494 21.3758 19.9429 21.375 19.6315V15.875C21.375 15.5103 21.2301 15.1606 20.9722 14.9027C20.7144 14.6449 20.3646 14.5 20 14.5C19.6353 14.5 19.2855 14.6449 19.0277 14.9027C18.7698 15.1606 18.625 15.5103 18.625 15.875Z" fill="#F7FAFF"/>
</g>
<defs>
<clipPath id="clip0_40_399">
<rect width="22" height="22" fill="white" transform="translate(9 9)"/>
</clipPath>
</defs>
</svg>
