<svg width="73" height="73" viewBox="0 0 73 73" fill="none" xmlns="http://www.w3.org/2000/svg">
<g filter="url(#filter0_d_934_3931)">
<circle cx="36.5" cy="36.5" r="22.5" fill="#CF0000"/>
<circle cx="36.5" cy="36.5" r="20" stroke="#F7FAFF" stroke-width="5"/>
</g>
<g clip-path="url(#clip0_934_3931)">
<path d="M46.6252 40.208C46.2605 40.208 45.9108 40.3529 45.6529 40.6107C45.395 40.8686 45.2502 41.2183 45.2502 41.583V42.958C45.2502 43.5658 45.0087 44.1487 44.5789 44.5784C44.1492 45.0082 43.5663 45.2497 42.9585 45.2497H41.5835C41.2188 45.2497 40.8691 45.3945 40.6112 45.6524C40.3534 45.9102 40.2085 46.26 40.2085 46.6247C40.2085 46.9893 40.3534 47.3391 40.6112 47.5969C40.8691 47.8548 41.2188 47.9996 41.5835 47.9996H42.9585C44.2952 47.9982 45.5767 47.4666 46.5219 46.5214C47.4671 45.5762 47.9987 44.2947 48.0002 42.958V41.583C48.0002 41.2183 47.8553 40.8686 47.5974 40.6107C47.3396 40.3529 46.9898 40.208 46.6252 40.208Z" fill="#F7FAFF"/>
<path d="M27.375 33.7917C27.7397 33.7917 28.0894 33.6468 28.3473 33.3889C28.6051 33.1311 28.75 32.7813 28.75 32.4167V31.0417C28.75 30.4339 28.9914 29.851 29.4212 29.4212C29.851 28.9914 30.4339 28.75 31.0417 28.75H32.4167C32.7813 28.75 33.1311 28.6051 33.3889 28.3473C33.6468 28.0894 33.7917 27.7397 33.7917 27.375C33.7917 27.0103 33.6468 26.6606 33.3889 26.4027C33.1311 26.1449 32.7813 26 32.4167 26H31.0417C29.705 26.0015 28.4235 26.5331 27.4783 27.4783C26.5331 28.4235 26.0015 29.705 26 31.0417V32.4167C26 32.7813 26.1449 33.1311 26.4027 33.3889C26.6606 33.6468 27.0103 33.7917 27.375 33.7917Z" fill="#F7FAFF"/>
<path d="M32.4167 45.2497H31.0417C30.4339 45.2497 29.851 45.0082 29.4212 44.5784C28.9914 44.1487 28.75 43.5658 28.75 42.958V41.583C28.75 41.2183 28.6051 40.8686 28.3473 40.6107C28.0894 40.3529 27.7397 40.208 27.375 40.208C27.0103 40.208 26.6606 40.3529 26.4027 40.6107C26.1449 40.8686 26 41.2183 26 41.583V42.958C26.0015 44.2947 26.5331 45.5762 27.4783 46.5214C28.4235 47.4666 29.705 47.9982 31.0417 47.9996H32.4167C32.7813 47.9996 33.1311 47.8548 33.3889 47.5969C33.6468 47.3391 33.7917 46.9893 33.7917 46.6247C33.7917 46.26 33.6468 45.9102 33.3889 45.6524C33.1311 45.3945 32.7813 45.2497 32.4167 45.2497Z" fill="#F7FAFF"/>
<path d="M42.9585 26H41.5835C41.2188 26 40.8691 26.1449 40.6112 26.4027C40.3534 26.6606 40.2085 27.0103 40.2085 27.375C40.2085 27.7397 40.3534 28.0894 40.6112 28.3473C40.8691 28.6051 41.2188 28.75 41.5835 28.75H42.9585C43.5663 28.75 44.1492 28.9914 44.5789 29.4212C45.0087 29.851 45.2502 30.4339 45.2502 31.0417V32.4167C45.2502 32.7813 45.395 33.1311 45.6529 33.3889C45.9108 33.6468 46.2605 33.7917 46.6252 33.7917C46.9898 33.7917 47.3396 33.6468 47.5974 33.3889C47.8553 33.1311 48.0002 32.7813 48.0002 32.4167V31.0417C47.9987 29.705 47.4671 28.4235 46.5219 27.4783C45.5767 26.5331 44.2952 26.0015 42.9585 26V26Z" fill="#F7FAFF"/>
<path d="M36.9998 36.0837C38.7718 36.0837 40.2082 34.6472 40.2082 32.8753C40.2082 31.1034 38.7718 29.667 36.9998 29.667C35.2279 29.667 33.7915 31.1034 33.7915 32.8753C33.7915 34.6472 35.2279 36.0837 36.9998 36.0837Z" fill="#F7FAFF"/>
<path d="M31.6006 42.3603C31.5794 42.4913 31.587 42.6252 31.623 42.7529C31.6589 42.8806 31.7223 42.9988 31.8088 43.0994C31.8952 43.2 32.0026 43.2805 32.1234 43.3352C32.2442 43.39 32.3755 43.4177 32.5081 43.4163H41.4914C41.6242 43.4179 41.7557 43.3904 41.8768 43.3358C41.9978 43.2812 42.1054 43.2007 42.192 43.1001C42.2787 42.9995 42.3423 42.8811 42.3783 42.7533C42.4144 42.6256 42.422 42.4914 42.4008 42.3603C42.1574 41.107 41.4856 39.9773 40.5005 39.1651C39.5154 38.3529 38.2784 37.9087 37.0016 37.9087C35.7248 37.9087 34.4878 38.3529 33.5027 39.1651C32.5176 39.9773 31.8458 41.107 31.6025 42.3603H31.6006Z" fill="#F7FAFF"/>
</g>
<defs>
<filter id="filter0_d_934_3931" x="0.7" y="0.7" width="71.6" height="71.6" filterUnits="userSpaceOnUse" color-interpolation-filters="sRGB">
<feFlood flood-opacity="0" result="BackgroundImageFix"/>
<feColorMatrix in="SourceAlpha" type="matrix" values="0 0 0 0 0 0 0 0 0 0 0 0 0 0 0 0 0 0 127 0" result="hardAlpha"/>
<feMorphology radius="5" operator="dilate" in="SourceAlpha" result="effect1_dropShadow_934_3931"/>
<feOffset/>
<feGaussianBlur stdDeviation="4.15"/>
<feComposite in2="hardAlpha" operator="out"/>
<feColorMatrix type="matrix" values="0 0 0 0 0 0 0 0 0 0 0 0 0 0 0 0 0 0 0.4 0"/>
<feBlend mode="normal" in2="BackgroundImageFix" result="effect1_dropShadow_934_3931"/>
<feBlend mode="normal" in="SourceGraphic" in2="effect1_dropShadow_934_3931" result="shape"/>
</filter>
<clipPath id="clip0_934_3931">
<rect width="22" height="22" fill="white" transform="translate(26 26)"/>
</clipPath>
</defs>
</svg>
