<svg width="73" height="73" viewBox="0 0 73 73" fill="none" xmlns="http://www.w3.org/2000/svg">
<g filter="url(#filter0_d_937_3670)">
<circle cx="36.5" cy="36.5" r="22.5" fill="#003F98"/>
<circle cx="36.5" cy="36.5" r="20" stroke="#F7FAFF" stroke-width="5"/>
</g>
<g clip-path="url(#clip0_937_3670)">
<path d="M42.9583 27.834H31.0417C29.705 27.8354 28.4235 28.3671 27.4783 29.3123C26.5331 30.2574 26.0015 31.539 26 32.8757V38.3757C26.0015 39.7123 26.5331 40.9939 27.4783 41.939C28.4235 42.8842 29.705 43.4159 31.0417 43.4173H35.625V45.2507H33.3333C32.9687 45.2507 32.6189 45.3955 32.3611 45.6534C32.1032 45.9112 31.9583 46.261 31.9583 46.6257C31.9583 46.9903 32.1032 47.3401 32.3611 47.5979C32.6189 47.8558 32.9687 48.0007 33.3333 48.0007H40.6667C41.0313 48.0007 41.3811 47.8558 41.6389 47.5979C41.8968 47.3401 42.0417 46.9903 42.0417 46.6257C42.0417 46.261 41.8968 45.9112 41.6389 45.6534C41.3811 45.3955 41.0313 45.2507 40.6667 45.2507H38.375V43.4173H42.9583C44.295 43.4159 45.5765 42.8842 46.5217 41.939C47.4669 40.9939 47.9985 39.7123 48 38.3757V32.8757C47.9985 31.539 47.4669 30.2574 46.5217 29.3123C45.5765 28.3671 44.295 27.8354 42.9583 27.834ZM45.25 38.3757C45.25 38.9834 45.0086 39.5663 44.5788 39.9961C44.149 40.4259 43.5661 40.6673 42.9583 40.6673H31.0417C30.4339 40.6673 29.851 40.4259 29.4212 39.9961C28.9914 39.5663 28.75 38.9834 28.75 38.3757V32.8757C28.75 32.2679 28.9914 31.685 29.4212 31.2552C29.851 30.8254 30.4339 30.584 31.0417 30.584H42.9583C43.5661 30.584 44.149 30.8254 44.5788 31.2552C45.0086 31.685 45.25 32.2679 45.25 32.8757V38.3757Z" fill="#F7FAFF"/>
</g>
<defs>
<filter id="filter0_d_937_3670" x="0.7" y="0.7" width="71.6" height="71.6" filterUnits="userSpaceOnUse" color-interpolation-filters="sRGB">
<feFlood flood-opacity="0" result="BackgroundImageFix"/>
<feColorMatrix in="SourceAlpha" type="matrix" values="0 0 0 0 0 0 0 0 0 0 0 0 0 0 0 0 0 0 127 0" result="hardAlpha"/>
<feMorphology radius="5" operator="dilate" in="SourceAlpha" result="effect1_dropShadow_937_3670"/>
<feOffset/>
<feGaussianBlur stdDeviation="4.15"/>
<feComposite in2="hardAlpha" operator="out"/>
<feColorMatrix type="matrix" values="0 0 0 0 0 0 0 0 0 0 0 0 0 0 0 0 0 0 0.4 0"/>
<feBlend mode="normal" in2="BackgroundImageFix" result="effect1_dropShadow_937_3670"/>
<feBlend mode="normal" in="SourceGraphic" in2="effect1_dropShadow_937_3670" result="shape"/>
</filter>
<clipPath id="clip0_937_3670">
<rect width="22" height="22" fill="white" transform="translate(26 26)"/>
</clipPath>
</defs>
</svg>
