<svg width="40" height="40" viewBox="0 0 40 40" fill="none" xmlns="http://www.w3.org/2000/svg">
<rect width="40" height="40" rx="20" fill="#36BD4C"/>
<g clip-path="url(#clip0_257_16921)">
<path d="M24.8125 10.6965C23.8723 10.7056 22.9472 10.9348 22.1115 11.3657C21.2758 11.7966 20.5527 12.4172 20 13.1779C19.4473 12.4172 18.7241 11.7966 17.8884 11.3657C17.0527 10.9348 16.1277 10.7056 15.1875 10.6965C13.4841 10.7645 11.8769 11.5042 10.7174 12.7539C9.55795 14.0036 8.94045 15.6615 8.99997 17.3652C8.99997 21.5379 13.2845 26.0048 16.8833 29.0179C17.7572 29.7527 18.8623 30.1556 20.0041 30.1556C21.1459 30.1556 22.251 29.7527 23.1249 29.0179C26.7201 26.0048 31.0082 21.5379 31.0082 17.3652C31.0677 15.6602 30.4491 14.001 29.2878 12.7511C28.1266 11.5012 26.5173 10.7624 24.8125 10.6965ZM21.3539 26.9105C20.9748 27.2297 20.4951 27.4047 19.9995 27.4047C19.5039 27.4047 19.0242 27.2297 18.6451 26.9105C14.2635 23.2365 11.75 19.7577 11.75 17.3652C11.6915 16.391 12.0197 15.4331 12.6633 14.6994C13.3069 13.9657 14.2139 13.5155 15.1875 13.4465C16.161 13.5155 17.068 13.9657 17.7116 14.6994C18.3552 15.4331 18.6834 16.391 18.625 17.3652C18.625 17.7299 18.7698 18.0797 19.0277 18.3375C19.2856 18.5954 19.6353 18.7402 20 18.7402C20.3646 18.7402 20.7144 18.5954 20.9722 18.3375C21.2301 18.0797 21.375 17.7299 21.375 17.3652C21.3165 16.391 21.6447 15.4331 22.2883 14.6994C22.9319 13.9657 23.8389 13.5155 24.8125 13.4465C25.786 13.5155 26.693 13.9657 27.3366 14.6994C27.9802 15.4331 28.3084 16.391 28.25 17.3652C28.25 19.7577 25.7365 23.2365 21.3539 26.9105Z" fill="#F7FAFF"/>
</g>
<defs>
<clipPath id="clip0_257_16921">
<rect width="22" height="22" fill="white" transform="translate(9 9)"/>
</clipPath>
</defs>
</svg>
