<svg width="40" height="40" viewBox="0 0 40 40" fill="none" xmlns="http://www.w3.org/2000/svg">
<rect width="40" height="40" rx="20" fill="#003F98"/>
<g clip-path="url(#clip0_1513_5014)">
<path d="M30.0601 16.9707L23.5646 10.4752C21.5943 8.50994 18.4051 8.50994 16.4348 10.4752L9.9393 16.9707C9.33568 17.5711 8.99734 18.388 8.99971 19.2394V28.7526C9.00173 29.9943 10.0084 31.0001 11.2501 31.0012H28.7493C29.991 31.0002 30.9976 29.9943 30.9997 28.7526V19.2394C31.0021 18.388 30.6637 17.5711 30.0601 16.9707ZM28.2497 28.2512H23.6664V25.3343C23.6664 23.4014 22.0994 21.8345 20.1665 21.8345H19.8329C17.9 21.8345 16.333 23.4014 16.333 25.3343V28.2512H11.7497V19.2394C11.75 19.1179 11.798 19.0013 11.8835 18.9149L18.379 12.4194C19.2739 11.5244 20.7249 11.5242 21.6199 12.419C21.6201 12.4191 21.6202 12.4193 21.6204 12.4194L28.1159 18.9149C28.2013 19.0013 28.2494 19.1179 28.2497 19.2394V28.2512H28.2497Z" fill="#F7FAFF"/>
</g>
<defs>
<clipPath id="clip0_1513_5014">
<rect width="22" height="22" fill="white" transform="translate(9 9)"/>
</clipPath>
</defs>
</svg>
