<svg width="40" height="40" viewBox="0 0 40 40" fill="none" xmlns="http://www.w3.org/2000/svg">
<rect width="40" height="40" rx="20" fill="#003F98"/>
<g clip-path="url(#clip0_43_1922)">
<path d="M25.9583 13.5833H23.6438C23.5282 12.3316 22.9497 11.168 22.0215 10.3203C21.0933 9.47256 19.8821 9.00176 18.625 9H14.0417C12.705 9.00146 11.4235 9.5331 10.4783 10.4783C9.5331 11.4235 9.00146 12.705 9 14.0417L9 25.9583C9.00146 27.295 9.5331 28.5765 10.4783 29.5217C11.4235 30.4669 12.705 30.9985 14.0417 31H25.9583C27.295 30.9985 28.5765 30.4669 29.5217 29.5217C30.4669 28.5765 30.9985 27.295 31 25.9583V18.625C30.9985 17.2883 30.4669 16.0068 29.5217 15.0616C28.5765 14.1164 27.295 13.5848 25.9583 13.5833ZM11.75 25.9583V14.0417C11.75 13.4339 11.9914 12.851 12.4212 12.4212C12.851 11.9914 13.4339 11.75 14.0417 11.75H18.625C19.2328 11.75 19.8157 11.9914 20.2455 12.4212C20.6752 12.851 20.9167 13.4339 20.9167 14.0417V28.25H14.0417C13.4339 28.25 12.851 28.0086 12.4212 27.5788C11.9914 27.149 11.75 26.5661 11.75 25.9583ZM28.25 25.9583C28.25 26.5661 28.0086 27.149 27.5788 27.5788C27.149 28.0086 26.5661 28.25 25.9583 28.25H23.6667V16.3333H25.9583C26.5661 16.3333 27.149 16.5748 27.5788 17.0045C28.0086 17.4343 28.25 18.0172 28.25 18.625V25.9583ZM27.3333 19.5417C27.3333 19.8136 27.2527 20.0795 27.1016 20.3056C26.9505 20.5317 26.7358 20.7079 26.4845 20.812C26.2333 20.9161 25.9568 20.9433 25.6901 20.8902C25.4234 20.8372 25.1784 20.7062 24.9861 20.5139C24.7938 20.3216 24.6628 20.0766 24.6098 19.8099C24.5567 19.5432 24.5839 19.2667 24.688 19.0155C24.7921 18.7642 24.9683 18.5495 25.1944 18.3984C25.4205 18.2473 25.6864 18.1667 25.9583 18.1667C26.323 18.1667 26.6727 18.3115 26.9306 18.5694C27.1885 18.8273 27.3333 19.177 27.3333 19.5417ZM27.3333 24.125C27.3333 24.3969 27.2527 24.6628 27.1016 24.8889C26.9505 25.115 26.7358 25.2913 26.4845 25.3953C26.2333 25.4994 25.9568 25.5266 25.6901 25.4736C25.4234 25.4205 25.1784 25.2896 24.9861 25.0973C24.7938 24.905 24.6628 24.66 24.6098 24.3932C24.5567 24.1265 24.5839 23.8501 24.688 23.5988C24.7921 23.3476 24.9683 23.1328 25.1944 22.9817C25.4205 22.8306 25.6864 22.75 25.9583 22.75C26.323 22.75 26.6727 22.8949 26.9306 23.1527C27.1885 23.4106 27.3333 23.7603 27.3333 24.125ZM15.4167 14.9583C15.4167 15.2303 15.336 15.4961 15.1849 15.7222C15.0339 15.9484 14.8191 16.1246 14.5679 16.2287C14.3166 16.3327 14.0401 16.36 13.7734 16.3069C13.5067 16.2539 13.2617 16.1229 13.0694 15.9306C12.8771 15.7383 12.7461 15.4933 12.6931 15.2266C12.64 14.9599 12.6673 14.6834 12.7713 14.4321C12.8754 14.1809 13.0516 13.9661 13.2778 13.8151C13.5039 13.664 13.7697 13.5833 14.0417 13.5833C14.4063 13.5833 14.7561 13.7282 15.0139 13.9861C15.2718 14.2439 15.4167 14.5937 15.4167 14.9583ZM15.4167 19.5417C15.4167 19.8136 15.336 20.0795 15.1849 20.3056C15.0339 20.5317 14.8191 20.7079 14.5679 20.812C14.3166 20.9161 14.0401 20.9433 13.7734 20.8902C13.5067 20.8372 13.2617 20.7062 13.0694 20.5139C12.8771 20.3216 12.7461 20.0766 12.6931 19.8099C12.64 19.5432 12.6673 19.2667 12.7713 19.0155C12.8754 18.7642 13.0516 18.5495 13.2778 18.3984C13.5039 18.2473 13.7697 18.1667 14.0417 18.1667C14.4063 18.1667 14.7561 18.3115 15.0139 18.5694C15.2718 18.8273 15.4167 19.177 15.4167 19.5417ZM20 14.9583C20 15.2303 19.9194 15.4961 19.7683 15.7222C19.6172 15.9484 19.4024 16.1246 19.1512 16.2287C18.8999 16.3327 18.6235 16.36 18.3568 16.3069C18.09 16.2539 17.845 16.1229 17.6527 15.9306C17.4604 15.7383 17.3295 15.4933 17.2764 15.2266C17.2234 14.9599 17.2506 14.6834 17.3547 14.4321C17.4587 14.1809 17.635 13.9661 17.8611 13.8151C18.0872 13.664 18.3531 13.5833 18.625 13.5833C18.9897 13.5833 19.3394 13.7282 19.5973 13.9861C19.8551 14.2439 20 14.5937 20 14.9583ZM20 19.5417C20 19.8136 19.9194 20.0795 19.7683 20.3056C19.6172 20.5317 19.4024 20.7079 19.1512 20.812C18.8999 20.9161 18.6235 20.9433 18.3568 20.8902C18.09 20.8372 17.845 20.7062 17.6527 20.5139C17.4604 20.3216 17.3295 20.0766 17.2764 19.8099C17.2234 19.5432 17.2506 19.2667 17.3547 19.0155C17.4587 18.7642 17.635 18.5495 17.8611 18.3984C18.0872 18.2473 18.3531 18.1667 18.625 18.1667C18.9897 18.1667 19.3394 18.3115 19.5973 18.5694C19.8551 18.8273 20 19.177 20 19.5417ZM15.4167 24.125C15.4167 24.3969 15.336 24.6628 15.1849 24.8889C15.0339 25.115 14.8191 25.2913 14.5679 25.3953C14.3166 25.4994 14.0401 25.5266 13.7734 25.4736C13.5067 25.4205 13.2617 25.2896 13.0694 25.0973C12.8771 24.905 12.7461 24.66 12.6931 24.3932C12.64 24.1265 12.6673 23.8501 12.7713 23.5988C12.8754 23.3476 13.0516 23.1328 13.2778 22.9817C13.5039 22.8306 13.7697 22.75 14.0417 22.75C14.4063 22.75 14.7561 22.8949 15.0139 23.1527C15.2718 23.4106 15.4167 23.7603 15.4167 24.125ZM20 24.125C20 24.3969 19.9194 24.6628 19.7683 24.8889C19.6172 25.115 19.4024 25.2913 19.1512 25.3953C18.8999 25.4994 18.6235 25.5266 18.3568 25.4736C18.09 25.4205 17.845 25.2896 17.6527 25.0973C17.4604 24.905 17.3295 24.66 17.2764 24.3932C17.2234 24.1265 17.2506 23.8501 17.3547 23.5988C17.4587 23.3476 17.635 23.1328 17.8611 22.9817C18.0872 22.8306 18.3531 22.75 18.625 22.75C18.9897 22.75 19.3394 22.8949 19.5973 23.1527C19.8551 23.4106 20 23.7603 20 24.125Z" fill="#F7FAFF"/>
</g>
<defs>
<clipPath id="clip0_43_1922">
<rect width="22" height="22" fill="white" transform="translate(9 9)"/>
</clipPath>
</defs>
</svg>
