<svg width="40" height="40" viewBox="0 0 40 40" fill="none" xmlns="http://www.w3.org/2000/svg">
<rect width="40" height="40" rx="20" fill="#A6A824"/>
<g clip-path="url(#clip0_1532_6900)">
<path d="M25.9583 13.5833H24.5833V12.2083C24.5833 11.3574 24.2453 10.5414 23.6436 9.9397C23.042 9.33802 22.2259 9 21.375 9H18.625C17.7741 9 16.958 9.33802 16.3564 9.9397C15.7547 10.5414 15.4167 11.3574 15.4167 12.2083V13.5833H14.0417C12.705 13.5848 11.4235 14.1164 10.4783 15.0616C9.5331 16.0068 9.00146 17.2883 9 18.625V25.9583C9.00146 27.295 9.5331 28.5765 10.4783 29.5217C11.4235 30.4669 12.705 30.9985 14.0417 31H25.9583C27.295 30.9985 28.5765 30.4669 29.5217 29.5217C30.4669 28.5765 30.9985 27.295 31 25.9583V18.625C30.9985 17.2883 30.4669 16.0068 29.5217 15.0616C28.5765 14.1164 27.295 13.5848 25.9583 13.5833ZM18.1667 12.2083C18.1667 12.0868 18.215 11.9702 18.3009 11.8842C18.3869 11.7983 18.5034 11.75 18.625 11.75H21.375C21.4966 11.75 21.6131 11.7983 21.6991 11.8842C21.785 11.9702 21.8333 12.0868 21.8333 12.2083V13.5833H18.1667V12.2083ZM28.25 25.9583C28.25 26.5661 28.0086 27.149 27.5788 27.5788C27.149 28.0086 26.5661 28.25 25.9583 28.25H14.0417C13.4339 28.25 12.851 28.0086 12.4212 27.5788C11.9914 27.149 11.75 26.5661 11.75 25.9583V18.625C11.75 18.0172 11.9914 17.4343 12.4212 17.0045C12.851 16.5748 13.4339 16.3333 14.0417 16.3333H25.9583C26.5661 16.3333 27.149 16.5748 27.5788 17.0045C28.0086 17.4343 28.25 18.0172 28.25 18.625V25.9583ZM24.125 22.2917C24.125 22.6563 23.9801 23.0061 23.7223 23.2639C23.4644 23.5218 23.1147 23.6667 22.75 23.6667H21.375V25.0417C21.375 25.4063 21.2301 25.7561 20.9723 26.0139C20.7144 26.2718 20.3647 26.4167 20 26.4167C19.6353 26.4167 19.2856 26.2718 19.0277 26.0139C18.7699 25.7561 18.625 25.4063 18.625 25.0417V23.6667H17.25C16.8853 23.6667 16.5356 23.5218 16.2777 23.2639C16.0199 23.0061 15.875 22.6563 15.875 22.2917C15.875 21.927 16.0199 21.5773 16.2777 21.3194C16.5356 21.0615 16.8853 20.9167 17.25 20.9167H18.625V19.5417C18.625 19.177 18.7699 18.8273 19.0277 18.5694C19.2856 18.3115 19.6353 18.1667 20 18.1667C20.3647 18.1667 20.7144 18.3115 20.9723 18.5694C21.2301 18.8273 21.375 19.177 21.375 19.5417V20.9167H22.75C23.1147 20.9167 23.4644 21.0615 23.7223 21.3194C23.9801 21.5773 24.125 21.927 24.125 22.2917Z" fill="#F7FAFF"/>
</g>
<defs>
<clipPath id="clip0_1532_6900">
<rect width="22" height="22" fill="white" transform="translate(9 9)"/>
</clipPath>
</defs>
</svg>
